<svg width="32" height="32" viewBox="0 0 32 32" fill="none" xmlns="http://www.w3.org/2000/svg">
<path d="M6.66665 1.33334H2.66665C2.31302 1.33334 1.97388 1.47382 1.72384 1.72387C1.47379 1.97392 1.33331 2.31305 1.33331 2.66668V29.3333C1.33331 29.687 1.47379 30.0261 1.72384 30.2762C1.97388 30.5262 2.31302 30.6667 2.66665 30.6667H6.66665V1.33334Z" fill="#8C9ACC"/>
<path d="M9.33331 30.6667H22.6666V1.33334H9.33331V30.6667ZM16 25.3333C15.6464 25.3333 15.3072 25.1929 15.0572 24.9428C14.8071 24.6928 14.6666 24.3536 14.6666 24C14.6666 23.6464 14.8071 23.3072 15.0572 23.0572C15.3072 22.8071 15.6464 22.6667 16 22.6667C16.3536 22.6667 16.6927 22.8071 16.9428 23.0572C17.1928 23.3072 17.3333 23.6464 17.3333 24C17.3333 24.3536 17.1928 24.6928 16.9428 24.9428C16.6927 25.1929 16.3536 25.3333 16 25.3333ZM16 6.66668C16.3536 6.66668 16.6927 6.80715 16.9428 7.0572C17.1928 7.30725 17.3333 7.64639 17.3333 8.00001C17.3333 8.35363 17.1928 8.69277 16.9428 8.94282C16.6927 9.19287 16.3536 9.33334 16 9.33334C15.6464 9.33334 15.3072 9.19287 15.0572 8.94282C14.8071 8.69277 14.6666 8.35363 14.6666 8.00001C14.6666 7.64639 14.8071 7.30725 15.0572 7.0572C15.3072 6.80715 15.6464 6.66668 16 6.66668ZM16 14.6667C16.3536 14.6667 16.6927 14.8072 16.9428 15.0572C17.1928 15.3072 17.3333 15.6464 17.3333 16C17.3333 16.3536 17.1928 16.6928 16.9428 16.9428C16.6927 17.1929 16.3536 17.3333 16 17.3333C15.6464 17.3333 15.3072 17.1929 15.0572 16.9428C14.8071 16.6928 14.6666 16.3536 14.6666 16C14.6666 15.6464 14.8071 15.3072 15.0572 15.0572C15.3072 14.8072 15.6464 14.6667 16 14.6667Z" fill="#37CDAB"/>
<path d="M29.3333 1.33334H25.3333V30.6667H29.3333C29.6869 30.6667 30.026 30.5262 30.2761 30.2762C30.5261 30.0261 30.6666 29.687 30.6666 29.3333V2.66668C30.6666 2.31305 30.5261 1.97392 30.2761 1.72387C30.026 1.47382 29.6869 1.33334 29.3333 1.33334Z" fill="#2C50AE"/>
</svg>
